<svg width="792" height="612" xmlns="http://www.w3.org/2000/svg">

 <g>
  <title>background</title>
  <rect fill="none" id="canvas_background" height="402" width="582" y="-1" x="-1"/>
 </g>
 <g>
  <title>Layer 1</title>
  <path fill="#ffffff" id="svg_1" d="m172.756,214.031c2.537,0.111 5.047,0.445 7.479,1.064c12.211,3.109 22.446,13.4 23.778,25.665s-6.239,26.505 -14.6,44.068c-8.362,17.564 -17.514,38.453 -23.532,54.665c-1.279,3.446 -2.416,6.68 -3.42,9.755c-0.961,3.753 -8.279,5.399 -11.894,8.83c-4.266,4.049 -7.889,9.066 -9.926,16.075c-2.036,7.009 -2.485,16.009 -6.503,19.484c-4.019,3.474 -11.606,1.422 -15.91,-0.546c-4.305,-1.968 -5.326,-3.851 -5.109,-7.273c0.217,-3.423 1.67,-8.386 3.343,-13.009c1.672,-4.624 3.563,-8.909 3.813,-14.104s-1.14,-11.299 -2.991,-15.811c-1.851,-4.513 -4.163,-7.434 -7.517,-9.516c-3.354,-2.083 -7.75,-3.326 -8.448,-2.661c-0.698,0.665 2.301,3.239 4.321,5.558c2.02,2.317 3.061,4.379 3.544,8.509c0.483,4.128 0.41,10.323 -0.196,16.521c-0.606,6.196 -1.744,12.395 -3.288,10.704c-1.543,-1.69 -3.493,-11.269 -6.591,-17.866s-7.344,-10.215 -11.729,-12.287c-4.384,-2.072 -8.905,-2.601 -12.397,-2.096s-5.953,2.042 -8.047,4.038c-2.094,1.995 -3.821,4.449 -3.063,5.183c0.76,0.733 4.006,-0.256 6.973,-0.487c2.967,-0.232 5.652,0.291 8.51,1.975c2.858,1.684 5.886,4.526 8.321,8.159c2.436,3.633 4.276,8.056 6.313,14.27c2.036,6.215 4.268,14.222 4.124,16.232c-0.144,2.009 -2.662,-1.978 -6.083,-5.503c-3.42,-3.526 -7.742,-6.591 -11.708,-8.879c-3.965,-2.287 -7.575,-3.799 -11.126,-4.363c-3.552,-0.565 -7.045,-0.186 -10.069,1.187c-3.023,1.371 -5.577,3.734 -6.706,7.937c-1.128,4.202 -0.833,10.244 -0.235,11.991c0.598,1.748 1.499,-0.797 2.534,-2.949c1.035,-2.152 2.204,-3.911 4.404,-4.514c2.201,-0.603 5.433,-0.048 8.297,0.864s5.36,2.182 8.588,4.776c3.229,2.595 7.191,6.514 9.985,11.785c2.795,5.27 4.422,11.892 6.957,17.689c2.535,5.797 5.978,10.771 7.58,15.491c1.601,4.722 1.363,9.188 0.577,13.219c-0.784,4.028 -2.116,7.617 -4.249,8.439c-2.131,0.821 -5.062,-1.126 -4.721,-0.178s3.954,4.793 7.691,5.712c3.737,0.918 7.598,-1.088 10.525,-4.069c2.928,-2.981 4.923,-6.938 5.262,-10.385c0.338,-3.448 -0.978,-6.387 -2.835,-10.127c-1.857,-3.742 -4.256,-8.285 -5.596,-12.672c-1.338,-4.388 -1.617,-8.617 -0.41,-10.426c1.208,-1.809 3.904,-1.195 6.598,0.233c2.694,1.43 5.386,3.674 7.817,6.447c2.433,2.771 4.604,6.069 7.389,9.166c2.785,3.097 6.182,5.99 8.593,6.906c2.412,0.917 3.837,-0.146 5.739,-3.072c1.903,-2.927 4.282,-7.718 6.837,-11.305c2.557,-3.588 5.288,-5.97 9.542,-2.082c1.559,1.423 3.321,3.687 5.153,5.993c3.405,8.463 8.278,16.498 16.19,24.246c10.859,10.635 27.441,20.728 46.636,23.701c5.915,0.916 12.079,1.156 18.264,0.828c1.215,0.066 2.464,0.136 3.756,0.218c6.886,0.438 14.989,1.26 22.885,3.056c7.896,1.795 15.583,4.566 17.997,9.613c2.413,5.045 -0.448,12.366 -2.87,16.433c-2.421,4.065 -4.404,4.877 -7.784,4.291s-8.156,-2.568 -12.571,-4.73c-4.416,-2.163 -8.471,-4.507 -13.607,-5.317c-5.138,-0.812 -11.355,-0.09 -16.042,1.262c-4.687,1.352 -7.84,3.334 -10.273,6.443s-4.145,7.345 -3.559,8.11c0.585,0.766 3.469,-1.938 5.993,-3.694c2.523,-1.758 4.686,-2.569 8.843,-2.603c4.157,-0.034 10.308,0.709 16.402,1.982c6.094,1.272 12.132,3.075 10.285,4.428c-1.848,1.352 -11.581,2.253 -18.475,4.618c-6.894,2.366 -10.95,6.196 -13.484,10.331c-2.535,4.134 -3.549,8.571 -3.425,12.097c0.124,3.526 1.385,6.139 3.143,8.438c1.757,2.298 4.009,4.28 4.821,3.604c0.811,-0.676 0.18,-4.01 0.27,-6.984c0.09,-2.974 0.901,-5.587 2.884,-8.245c1.983,-2.659 5.137,-5.362 9.012,-7.39c3.875,-2.028 8.471,-3.379 14.87,-4.731c6.398,-1.352 14.6,-2.703 16.583,-2.343c1.982,0.36 -2.253,2.433 -6.129,5.452c-3.875,3.019 -7.389,6.983 -10.093,10.679c-2.704,3.694 -4.597,7.119 -5.542,10.589c-0.946,3.47 -0.946,6.983 0.09,10.138c1.036,3.154 3.109,5.947 7.165,7.525c4.055,1.576 10.093,1.937 11.895,1.532c1.802,-0.406 -0.63,-1.577 -2.658,-2.839c-2.028,-1.262 -3.65,-2.613 -4.011,-4.867c-0.36,-2.253 0.541,-5.406 1.757,-8.154c1.216,-2.749 2.749,-5.093 5.678,-8.021c2.929,-2.929 7.254,-6.443 12.796,-8.651c5.542,-2.208 12.301,-3.108 18.339,-5.001s11.354,-4.776 16.222,-5.858c4.866,-1.081 9.281,-0.36 13.202,0.856s7.344,2.929 7.93,5.137c0.585,2.208 -1.667,4.911 -0.687,4.675c0.979,-0.235 5.193,-3.412 6.511,-7.027c1.318,-3.616 -0.26,-7.671 -2.907,-10.904s-6.364,-5.645 -9.754,-6.354c-3.391,-0.71 -6.455,0.281 -10.375,1.723c-3.921,1.442 -8.697,3.335 -13.203,4.191c-4.506,0.855 -8.742,0.676 -10.408,-0.722c-1.667,-1.396 -0.767,-4.01 0.946,-6.533s4.235,-4.957 7.254,-7.074c3.019,-2.118 6.533,-3.92 9.913,-6.354c3.379,-2.434 6.624,-5.497 7.795,-7.795c1.171,-2.298 0.271,-3.83 -2.434,-6.038c-2.704,-2.208 -7.209,-5.092 -10.498,-8.021c-3.29,-2.929 -5.362,-5.902 -5.723,-11.896c-0.361,-5.993 0.991,-15.005 2.948,-21.313s4.521,-9.911 6.208,-14.371c0.369,-0.977 0.697,-1.993 0.941,-2.974c6.788,-14.871 11.322,-32.86 16.282,-48.861c5.586,-18.023 11.715,-33.523 22.66,-41.822c10.945,-8.297 26.707,-9.393 39.053,-4.301c12.347,5.092 21.276,16.371 33.221,34.04c11.945,17.671 26.904,41.731 39.251,59.169c11.736,16.577 49.937,34.463 23.787,51.406c-3.2,2.073 -6.534,3.695 -10.139,3.74s-7.479,-1.487 -10.048,-4.325c-2.569,-2.84 -3.83,-6.984 -5.227,-11.58c-1.397,-4.597 -2.93,-9.644 -6.084,-13.473c-3.154,-3.83 -7.93,-6.443 -13.021,-7.39s-10.499,-0.226 -11.085,0.855c-0.585,1.082 3.65,2.523 6.714,4.506c3.064,1.983 4.957,4.506 7.165,8.472c2.207,3.965 4.73,9.372 5.406,11.265s-0.495,0.271 -2.298,-1.623c-1.802,-1.892 -4.235,-4.055 -8.2,-5.767c-3.966,-1.713 -9.463,-2.975 -14.96,-3.064s-10.994,0.991 -15.14,4.326c-4.146,3.334 -6.938,8.921 -7.345,10.634c-0.405,1.712 1.577,-0.451 5.452,-2.163s9.643,-2.974 15.996,-2.253c6.353,0.721 13.292,3.425 18.971,6.714c5.677,3.289 10.092,7.164 10.002,7.886c-0.09,0.72 -4.686,-1.713 -9.598,-2.704c-4.911,-0.991 -10.138,-0.541 -14.644,1.127c-4.506,1.667 -8.291,4.551 -10.724,7.659c-2.434,3.109 -3.516,6.443 -4.101,9.823c-0.586,3.379 -0.677,6.804 -0.09,6.894c0.585,0.09 1.847,-3.153 4.325,-5.542c2.479,-2.388 6.173,-3.92 10.453,-4.686c4.28,-0.767 9.147,-0.767 13.743,-0.36c4.596,0.405 8.921,1.216 12.392,2.478c3.469,1.262 6.082,2.974 10.093,5.497s9.417,5.857 13.022,9.688c3.604,3.829 5.406,8.155 6.487,12.075c1.082,3.92 1.442,7.435 0.767,9.958s-2.388,4.055 -0.766,3.424s6.578,-3.424 9.598,-7.164c3.019,-3.74 4.1,-8.426 4.506,-11.715c0.405,-3.29 0.135,-5.182 -1.938,-7.029c-2.072,-1.848 -5.947,-3.65 -9.281,-6.038c-3.335,-2.389 -6.128,-5.362 -7.3,-7.39s-0.721,-3.108 0.812,-3.694c1.531,-0.586 4.145,-0.676 8.2,-0.856c4.056,-0.18 9.552,-0.45 14.464,-0.045c4.911,0.405 9.237,1.486 11.985,2.072c2.749,0.586 3.92,0.676 5.228,-1.667c1.307,-2.343 2.748,-7.119 4.957,-11.22c2.207,-4.1 5.181,-7.524 8.471,-9.958c12.053,-8.916 34.548,-4.84 51.821,-9.366c32.557,-8.532 25.523,-17.968 68.969,-19.572c12.993,-0.479 17.106,0.268 20.348,2.232c3.242,1.965 5.609,5.149 7.521,8.447s3.367,6.709 3.234,10.312c-0.135,3.603 -1.856,7.396 -4.818,9.821c-2.963,2.425 -7.165,3.479 -11.824,4.646c-4.66,1.168 -9.776,2.449 -13.758,5.409c-3.981,2.961 -6.828,7.602 -8.024,12.641c-1.197,5.038 -0.746,10.475 0.306,11.113c1.051,0.639 2.7,-3.521 4.833,-6.482c2.132,-2.963 4.745,-4.728 8.814,-6.736c4.07,-2.009 9.595,-4.262 11.519,-4.843s0.246,0.508 -1.733,2.215s-4.26,4.029 -6.167,7.905c-1.905,3.875 -3.438,9.304 -3.8,14.789c-0.362,5.486 0.445,11.03 3.57,15.336c3.125,4.305 8.567,7.372 10.258,7.861c1.69,0.49 -0.372,-1.598 -1.89,-5.553c-1.519,-3.955 -2.494,-9.777 -1.459,-16.088c1.034,-6.309 4.078,-13.106 7.645,-18.614c3.566,-5.507 7.655,-9.727 8.371,-9.6c0.715,0.126 -1.942,4.596 -3.176,9.451c-1.233,4.856 -1.042,10.1 0.4,14.683s4.134,8.506 7.12,11.09c2.984,2.584 6.261,3.829 9.607,4.581c3.346,0.753 6.762,1.013 6.881,0.432c0.118,-0.58 -3.059,-2.001 -5.321,-4.596c-2.263,-2.593 -3.609,-6.358 -4.162,-10.672c-0.554,-4.313 -0.313,-9.174 0.32,-13.744c0.632,-4.569 1.655,-8.85 3.087,-12.253c1.433,-3.402 3.272,-5.928 5.99,-9.809c2.72,-3.881 6.316,-9.115 10.321,-12.526c4.004,-3.411 8.413,-4.996 12.382,-5.883c3.97,-0.886 7.497,-1.071 9.983,-0.272c2.487,0.801 3.932,2.586 3.383,0.935c-0.55,-1.651 -3.095,-6.739 -6.681,-9.939s-8.213,-4.513 -11.478,-5.08c-3.267,-0.568 -5.169,-0.392 -7.116,1.586c-1.948,1.979 -3.94,5.761 -6.49,8.972c-2.551,3.213 -5.659,5.856 -7.742,6.926c-2.083,1.07 -3.141,0.565 -3.649,-0.994c-0.51,-1.559 -0.47,-4.173 -0.45,-8.231c0.021,-4.06 0.023,-9.564 0.672,-14.449c0.647,-4.886 1.941,-9.151 2.663,-11.868c0.721,-2.716 0.868,-3.882 -1.406,-5.304c-2.276,-1.421 -6.976,-3.097 -17.746,-7.069c-10.772,-3.973 -27.617,-10.24 -34.057,-23.808c-3.94,-8.304 -2.104,-30.298 -6.314,-44.91c-6.128,-21.268 -18.023,-36.407 -40.192,-49.024c-22.169,-12.616 -54.61,-22.709 -78.896,-31.09c-24.286,-8.38 -40.415,-15.048 -50.688,-27.079c-14.597,-17.096 -16.619,-60.744 6.263,-65.534c7.749,-1.623 18.704,0.199 27.696,3.091c8.992,2.893 16.021,6.858 21.608,12.625c5.587,5.768 9.732,13.338 11.265,14.239c1.531,0.901 0.451,-4.866 -1.803,-11.084c-2.253,-6.218 -5.677,-12.887 -10.723,-17.934c-5.047,-5.046 -11.717,-8.47 -11.355,-9.281c0.36,-0.812 7.75,0.991 14.238,4.236c6.488,3.244 12.075,7.93 16.131,14.598c4.056,6.669 6.578,15.321 10.093,23.701c3.516,8.381 8.021,16.492 13.608,24.242c5.587,7.75 12.256,15.14 14.329,17.212c2.072,2.073 -0.451,-1.171 -2.885,-6.308c-2.434,-5.136 -4.776,-12.166 -6.308,-20.817c-1.532,-8.651 -2.253,-18.924 -1.713,-21.988c0.541,-3.063 2.343,1.082 5.047,8.471c2.704,7.39 6.309,18.024 9.553,25.954c3.244,7.931 6.127,13.157 12.616,18.654c6.488,5.498 16.582,11.265 30.369,16.312c13.788,5.047 31.271,9.372 36.228,10.273s-2.613,-1.622 -8.652,-5.317c-6.037,-3.694 -10.543,-8.561 -14.058,-13.427s-6.037,-9.732 -3.695,-9.282c2.344,0.451 9.554,6.218 20.457,10.363c10.904,4.146 25.504,6.669 38.3,6.85c12.798,0.18 23.791,-1.983 22.89,-3.064s-13.697,-1.082 -22.528,-5.317c-8.832,-4.235 -13.698,-12.706 -20.907,-24.872c-7.21,-12.166 -16.763,-28.026 -28.388,-40.553c-11.625,-12.525 -25.322,-21.718 -25.322,-25.143c0,-3.424 13.697,-1.081 26.403,-0.36c12.707,0.721 24.422,-0.18 21.809,-1.802c-2.613,-1.622 -19.555,-3.965 -39.021,-11.896c-19.465,-7.93 -41.454,-21.447 -51.276,-27.936c-9.823,-6.488 -7.48,-5.948 -1.441,-5.227c6.037,0.721 15.77,1.622 13.066,-0.09c-2.704,-1.712 -17.843,-6.038 -31.722,-8.021c-13.878,-1.982 -26.494,-1.622 -37.556,1.418c-33.127,9.106 -77.06,38.954 -88.035,72.505c-7.841,23.972 -0.631,48.844 10.268,67.139c10.898,18.295 25.486,30.014 44.951,40.828c19.466,10.814 43.809,20.724 62.289,29.284c18.479,8.56 31.095,15.77 37.403,26.943c6.309,11.175 6.309,26.315 0.181,38.029c-6.128,11.716 -18.385,20.007 -32.082,20.728c-13.698,0.722 -28.838,-6.128 -44.698,-25.953c-9.404,-11.757 -19.063,-28.074 -29.077,-44.211c-0.92,-1.903 -1.603,-3.463 -1.86,-4.811c-0.511,-2.667 0.644,-4.505 2.662,-5.289c2.019,-0.783 4.902,-0.513 2.554,-2.294c-2.35,-1.78 -9.932,-5.612 -14.798,-9.803c-4.866,-4.189 -7.018,-8.739 -8.138,-11.916c-1.12,-3.175 -1.211,-4.978 0.142,-5.969c1.352,-0.991 4.146,-1.171 2.072,-2.479c-2.072,-1.307 -9.012,-3.74 -15.842,-7.384c-6.83,-3.644 -13.552,-8.498 -17.562,-12.147c-4.01,-3.649 -5.31,-6.095 -4.066,-7.542s5.027,-1.898 5.073,-2.349c0.045,-0.45 -3.649,-0.901 -8.291,-2.208c-4.641,-1.307 -10.229,-3.469 -15.86,-5.812s-11.31,-4.866 -15.095,-7.435c-3.785,-2.568 -5.677,-5.181 -4.189,-7.164c1.486,-1.983 6.353,-3.334 2.478,-3.38c-3.875,-0.045 -16.491,1.217 -25.413,1.442c-8.922,0.226 -14.149,-0.585 -19.601,-1.307c-5.452,-0.721 -11.129,-1.352 -12.977,-2.839c-1.847,-1.487 0.135,-3.83 -1.216,-3.379s-6.038,3.694 -12.526,6.759c-6.488,3.064 -14.779,5.947 -20.637,7.885c-5.858,1.938 -9.282,2.929 -11.084,1.667s-1.983,-4.776 -2.929,-4.326c-0.946,0.45 -2.659,4.867 -6.173,10.138c-3.515,5.272 -8.833,11.4 -12.843,16.267c-4.01,4.866 -6.713,8.471 -8.335,9.867c-1.622,1.397 -2.163,0.586 -2.884,-0.991c-0.721,-1.577 -1.635,-4.225 -2.027,-4.055c-1.417,0.612 -1.278,2.463 -1.233,5.392c0.044,2.929 0.044,6.714 -0.611,11.991c-2.274,18.348 -4.551,34.777 -6.75,53.715c-1.372,11.814 -4.476,21.024 -10.354,26.352c-5.878,5.326 -14.529,6.769 -19.646,-0.36c-5.117,-7.129 -6.699,-22.828 -4.606,-39.509c2.093,-16.682 7.86,-34.345 14.349,-51.466c0.98,-2.585 4.317,-8.526 7.837,-6.516c1.412,0.807 2.043,3.42 2.764,0.041c0.721,-3.379 1.532,-12.751 2.343,-19.015s1.622,-9.417 3.109,-8.832c1.486,0.586 3.649,4.912 4.416,3.694c0.766,-1.216 0.135,-7.976 -0.811,-13.923c-0.947,-5.947 -2.208,-11.084 -3.965,-15.771c-1.758,-4.686 -4.011,-8.921 -2.208,-10.453c1.802,-1.532 7.66,-0.361 8.967,-0.767c1.307,-0.405 -1.938,-2.389 -8.851,-7.156c-6.914,-4.768 -9.115,-9.617 -13.145,-13.348c-4.03,-3.731 -1.507,-3.642 2.638,-4.137c4.146,-0.496 9.913,-1.577 7.795,-2.388c-10.255,-3.928 -38.14,-6.939 -38.254,-8.913c-1.286,-1.846 12.971,-7.789 11.63,-9.434c-1.486,-1.825 -12.835,-0.609 -20.74,-1.082c-7.904,-0.473 -12.362,-2.634 -11.417,-5.539c0.945,-2.905 7.296,-6.554 11.958,-11.012c4.661,-4.458 7.633,-9.728 10.404,-16.281c2.77,-6.553 5.337,-14.389 5.27,-16.281c-0.068,-1.892 -2.771,2.162 -6.756,6.688c-3.987,4.526 -9.256,9.525 -16.755,13.714c-7.499,4.188 -17.227,7.566 -22.767,6.958c-5.54,-0.608 -6.891,-5.202 -5.54,-11.35c1.351,-6.148 5.405,-13.849 10.81,-18.713c5.404,-4.864 12.161,-6.891 18.781,-9.593c6.621,-2.703 13.106,-6.081 18.038,-11.215c4.931,-5.134 8.31,-12.025 9.323,-20.47c1.013,-8.444 -0.338,-18.442 -1.284,-19.388c-0.946,-0.946 -1.486,7.161 -2.635,13.512c-1.148,6.35 -2.904,10.944 -5.675,14.592c-2.77,3.648 -6.553,6.35 -13.241,8.309c-6.688,1.959 -16.282,3.175 -23.51,5.743c-7.229,2.567 -12.093,6.485 -16.62,12.903c-4.525,6.418 -8.714,15.335 -12.227,22.092c-3.513,6.756 -6.351,11.35 -7.77,10.876c-1.419,-0.473 -1.419,-6.012 -0.54,-12.498c0.878,-6.486 2.634,-13.917 5.201,-19.592c2.567,-5.674 5.945,-9.593 12.093,-14.389c6.148,-4.797 15.066,-10.472 21.01,-17.546c5.945,-7.074 8.918,-15.548 9.864,-23.52c0.945,-7.972 -0.136,-15.442 -0.946,-13.03c-0.811,2.412 -1.352,14.708 -8.715,23.22c-7.364,8.513 -21.551,13.241 -30.333,20.065c-8.782,6.823 -12.16,15.741 -15.064,24.186c-2.905,8.444 -5.337,16.417 -10.404,23.848c-5.067,7.431 -12.769,14.322 -18.782,18.714c-6.013,4.391 -10.336,6.282 -15.606,9.728c-5.27,3.445 -11.485,8.445 -13.039,13.174c-1.553,4.729 1.554,9.188 2.433,13.376c0.878,4.189 -0.473,8.107 -4.796,12.161c-4.324,4.053 -11.62,8.242 -16.282,9.323c-4.661,1.08 -6.688,-0.947 -9.525,-1.825c-2.837,-0.878 -6.485,-0.608 -9.391,1.486c-2.905,2.094 -5.067,6.014 -5,9.527c0.067,3.513 2.365,6.62 3.378,9.998c1.014,3.378 0.743,7.026 1.351,11.891c0.608,4.864 2.095,10.944 3.986,14.795c1.892,3.851 4.189,5.472 8.107,6.823c3.918,1.352 9.458,2.432 10.606,1.96c1.148,-0.474 -2.095,-2.5 -3.986,-5.202c-1.891,-2.703 -2.433,-6.081 -1.419,-8.647c1.014,-2.568 3.582,-4.324 6.081,-5.135c2.5,-0.811 4.931,-0.676 8.58,1.013c3.648,1.689 8.512,4.932 10.201,5.608c1.689,0.675 0.203,-1.216 -1.013,-4.054c-1.216,-2.837 -2.162,-6.621 -1.554,-9.255c0.608,-2.635 2.769,-4.121 7.499,-6.215c4.729,-2.094 12.025,-4.796 17.431,-7.971c5.404,-3.175 8.917,-6.824 10.539,-5.743c1.621,1.08 1.351,6.891 1.014,12.024c-0.338,5.135 -0.744,9.594 -2.028,13.107c-1.283,3.513 -3.445,6.08 -6.35,7.633c-2.905,1.554 -6.553,2.095 -9.863,1.149c-3.311,-0.946 -6.283,-3.378 -7.161,-3.04c-0.878,0.337 0.337,3.445 2.093,6.688c1.757,3.242 4.055,6.62 3.108,8.174c-0.946,1.553 -5.134,1.284 -8.985,0.337c-3.851,-0.946 -7.364,-2.567 -6.959,-1.216c0.405,1.352 4.729,5.675 9.053,8.58c4.324,2.905 8.648,4.391 14.728,3.851c6.08,-0.541 13.917,-3.107 19.997,-7.363s10.404,-10.202 13.174,-17.768c2.77,-7.566 3.986,-16.754 9.887,-21.528c5.9,-4.773 16.484,-5.133 21.475,-8.689c2.884,-2.059 3.899,-5.184 3.285,-8.046z" stroke-miterlimit="22.9256" stroke-linejoin="round" stroke-linecap="round" stroke-width="2.9999" stroke="#000000" clip-rule="evenodd" fill-rule="evenodd"/>
 </g>
</svg>