<svg width="811.2" height="620.8" xmlns="http://www.w3.org/2000/svg">
 <metadata>image/svg+xml</metadata>

 <g>
  <title>background</title>
  <rect fill="none" id="canvas_background" height="402" width="582" y="-1" x="-1"/>
 </g>
 <g>
  <title>Layer 1</title>
  <path fill="#ffffff" id="svg_1" stroke-width="0.8" d="m278.34,559.92l-0.57358,-1.4338l-0.42822,-13.2l-0.4282,-13.2l1.7802,-16l3.798,-15.2l2.16,-6l2.16,-6l7.6789,-14.4l3.8438,-5.6l6.8199,-9.1782l9.9656,-10.658l17.6,-13.141l24,-14.339l28,-16.588l10.4,-6.631l14.4,-9.2456l7.7655,-7.4191l6.0189,-8.0398l8.6156,-2.727l12,-7.0653l12.231,-10.471l7.7694,-10.492l4.5659,-8.4052l4.5762,-13.03l0.76967,-5.085l0.76968,-5.085l1.0269,-11.2l-2.4677,-16.41l-6.6655,-13.99l-12.611,-12.63l-0.92569,0.92569l4.9848,15.482l2.3773,13.632l-0.012,18.59l-1.6112,10.4l-2.5054,6.8l-2.5054,6.8l-7.9284,12l-9.0375,9.3288l-8.8,6.6861l-4.6013,2.9539l-0.68711,-1.0844l-0.68711,-1.0844l-0.0122,-0.61787l-0.0122,-0.61788l-6.594,-7.1537l-5.006,-3.0432l-12.8,-3.4761l-16,-0.86729l-14.4,1.7387l-24.8,3.9513l-19.2,4.0442l-18.4,4.1646l-16.8,3.8917l-18.4,4.0585l-9.6,1.4949l-1.8531,0.0322l5.8531,11.405l0,13.795l-0.67376,2.4l-0.67374,2.4l-4.4351,-13.167l-6.4455,-8.537l-16.014,-8.4192l-9.3254,-9.7086l-4.6591,10.014l-0.40257,5.6264l-0.40256,5.6264l-2.4752,-4.6356l-0.32802,-7.2l-0.32803,-7.2l1.7475,-5.2l1.7475,-5.2l6.264,-11.39l6.3384,-7.0103l0.0876,7.2l0.96476,3.6l1.1093,0l6.8374,-10.325l8.9464,-8.8753l1.2056,0l0.99285,4.4365l0.99285,4.4365l1.307,0.80776l5.1639,-6.0808l9.1662,-9.364l2.0419,0.68062l2.3659,9.0834l1.6842,-0.0202l7.7594,-8.8471l8.7956,-6.4977l0.6745,0.68248l0.67449,0.6825l0.24799,4l0.248,4l4,-0.24599l18.4,-5.0061l18.4,-0.94179l13.6,1.8118l4.2036,0.93107l2.419,-13.126l-2.177,-10.405l-3.9325,-6.7103l-7.4257,-6.8447l-10.687,-5.0082l-8.8,-0.0296l-7.2405,3.4508l-8.7595,6.0095l-9.6919,9.7143l-5.8016,7.1732l-1.0468,-1.0468l-0.4473,-4.9328l-0.44728,-4.9328l-4.3623,7.0086l-8.3759,7.5307l-1.9733,0l0.62548,-3.8l0.62549,-3.8l0.0477,-1l0.0473,-1l-1.2,0.0476l-2.7569,4.8135l-2.7569,4.8135l-7.6176,7.1254l-2.4686,0l0,-9.5056l-1.6,-0.98885l0,1.8792l-7.3532,11.061l-6.2468,3.1869l-0.11196,-0.21626l-0.11195,-0.21626l-0.88805,-7.4728l-0.88804,-7.4728l-6.4,10.092l-10.42,10.854l-1.98,0l0,-13.333l-0.93429,-0.93429l-8.9379,3.0751l-6.5278,3.8498l-2.1145,2.2714l-2.1146,2.2714l-4.8204,9.6l-0.93752,-4l-0.71568,-3.2l-0.71567,-3.2l-2.5254,-9.2l-2.5254,-9.2l-6.5129,-19.2l-7.7454,-15.6l4.007,0l5.1205,2.618l6.0046,5.382l1.5509,0l3.5566,-8.4l6.2352,-11.956l4.9243,-6.4442l7.3284,-7.7005l9.0139,-5.5022l5.3861,-1.0419l-5.8088,5.4447l-4.1912,8.3468l0,8.8532l0.44762,0l11.952,-11.704l14.4,-9.6165l14.4,-8.033l16.8,-8.0406l12,-5.104l8.8,-3.669l7.424,-2.6984l7.2246,-4.7854l2.1253,-2.7864l2.1253,-2.7864l3.9,-8.5186l0.52023,-7.329l0.52024,-7.3291l-3.5198,-0.0946l-3.5198,-0.0947l-4.8,-1.0422l12.8,-3.7921l13.6,-5.4541l11.943,-6.5521l8.0566,-5.6177l4,-3.0826l5.6041,-5.0699l11.398,-9.109l16.598,-11.012l20.8,-11.388l16.8,-7.4071l3.2,-1.4385l11.2,-4.177l15.2,-4.4971l16,-3.2796l11.2,-1.0893l-0.81381,0.87749l-13.586,5.5366l-16.503,7.5249l-15.497,8.0454l-12.644,8.8949l-23.756,22.275l0,1.3016l22.8,-9.2551l14.4,-4.8566l16,-4.7603l10.4,-2.626l16,-3.2291l21.6,-3.1641l15.456,-3.8712l14.144,-4.9847l12,-5.7529l15.714,-10.185l16.035,-15.56l8.8022,-11.695l8.3139,-16.318l1.6238,-4.8l2.7111,11.796l-0.0173,6.1019l-0.0173,6.1019l-1.5288,6.913l-1.5288,6.913l-5.5378,10.974l-9.5813,12.8l-14.235,13.6l-3.1538,2.4282l-8,5.4043l-12.996,6.8688l-12.604,4.7435l-15.019,4.1975l-11.381,1.5175l-30.4,4.1834l-14.439,4.6162l-1.5807,1.1949l-1.5807,1.1949l3.5065,0.0508l34.094,-4.2468l69.6,-0.23384l12.8,-2.0524l13.6,-3.1439l13.215,-4.6983l6.0956,-3.1098l8.2892,-6.5522l0,2.6048l-4.0862,8.1354l-5.4044,7.297l-10.109,9.8087l-8.7063,5.8785l-11.578,5.5687l-11.716,4.0183l-19.2,3.773l-10.4,1.0278l-43.2,1.4274l-5.6,1.5424l-4.7774,1.0805l2.7131,1.5183l19.664,3.8782l13.6,1.6536l19.2,1.757l14.493,2.9684l12.459,5.6777l11.183,7.4346l11.464,11.477l8.5448,12.38l7.684,16.329l1.6972,5.5218l1.6972,5.5218l-0.22778,0.22778l-0.22778,0.22777l-9.5676,-8.7727l-10.4,-8.5072l-10.4,-7.181l-12.8,-7.2026l-12.8,-4.8603l-11.704,-1.9375l-0.65864,0.65864l13.07,9.5036l16.262,16l8.0247,10.4l6.5727,10.774l5.4049,10.826l4.9104,13.6l1.6802,7.2783l1.6802,7.2783l0.77277,6.7217l0.77278,6.7217l-0.00049,9.2l-0.0005,9.2l-0.81555,7.2l-0.81556,7.2l-3.9801,18.941l-1.654,5.3296l-1.654,5.3296l-2.293,6.4l-2.293,6.4l-4.8142,12.653l-1.8225,1.7474l0.49943,-4l0.49942,-4l0.45648,-20.082l0.45647,-20.082l-2.0462,-11.137l-2.0462,-11.137l-2.0903,-5.5807l-2.0903,-5.5807l-1.4838,-1.52l-0.154,0.72l-1.296,39.2l-4.0448,25.6l-4.1993,16.8l-3.9572,11.2l-4.3106,10.4l-3.1302,5.6l-3.1302,5.6l-4.8449,6.4l-9.7329,10.134l-6.8,4.7426l0,-1.4757l2.5263,-7.0012l4.5331,-15.2l4.0535,-16l0.8851,-4.8l1.5283,-18.4l-0.57713,-2.7079l-0.57714,-2.7079l-3.8237,11.016l-4.7266,9.6l-10.52,16l-21.701,21.602l-16.8,11.117l-5.6,3.5479l-15.216,7.1936l-8.7837,3.4323l-13.6,4.9065l-9.6,2.7902l-19.2,5.8604l-16.8,4.8868l-9.6,2.8949l-16.8,5.133l-20.8,7.2786l-11.717,5.3565l-0.51059,0l-13.373,7.5171l-13.562,9.6829l-15.761,15.114l-9.688,12.086l-1.1922,0.46763l-0.57358,-1.4338l0.00028,0.00129zm102.38,-339.74l4,-1.0864l9.3169,-4.1698l-1.0113,-1.6364l-2.8898,0l-3.8158,-2.9609l-10.095,-4.5004l-12.305,-0.1387l-5.6,3.2514l-2,3.8518l-2,3.8518l-4.4,2.2961l0,1.4764l5.2,0.85001l4.8,0.69075l16.8,-0.6894l4,-1.08626z"/>
 </g>
</svg>